<?xml version="1.0" encoding="utf-8"?>
<svg xmlns="http://www.w3.org/2000/svg" xmlns:xlink="http://www.w3.org/1999/xlink" style="margin: auto; background: rgb(255, 255, 255); display: block; shape-rendering: auto;" width="200px" height="200px" viewBox="0 0 100 100" preserveAspectRatio="xMidYMid">
<g transform="translate(50 50)">
<g>
<animateTransform attributeName="transform" type="rotate" values="0;51.42857142857143" keyTimes="0;1" dur="0.2s" repeatCount="indefinite"></animateTransform><path d="M41.13088863615762 -8.5 L55.13088863615762 -8.5 L55.13088863615762 8.5 L41.13088863615762 8.5 A42 42 0 0 1 32.2902572070098 26.857760321835315 L32.2902572070098 26.857760321835315 L41.01911443303207 37.80340107638773 L27.727979231075565 48.4027277079862 L18.999122005053298 37.45708695343379 A42 42 0 0 1 -0.8655965002254529 41.99107932286092 L-0.8655965002254529 41.99107932286092 L-3.980889575613854 55.64007009340645 L-20.554664082704846 51.8572142161491 L-17.439371007316446 38.20822344560357 A42 42 0 0 1 -33.36963838784016 25.504259131854514 L-33.36963838784016 25.504259131854514 L-45.983202538474025 31.57863147950033 L-53.35922610347251 16.262160725159212 L-40.745661952838645 10.187788377513394 A42 42 0 0 1 -40.74566195283865 -10.187788377513384 L-40.74566195283865 -10.187788377513384 L-53.35922610347252 -16.262160725159195 L-45.98320253847404 -31.578631479500316 L-33.36963838784017 -25.504259131854504 A42 42 0 0 1 -17.439371007316456 -38.20822344560357 L-17.439371007316456 -38.20822344560357 L-20.55466408270486 -51.8572142161491 L-3.9808895756138667 -55.64007009340645 L-0.865596500225463 -41.99107932286092 A42 42 0 0 1 18.99912200505329 -37.45708695343379 L18.99912200505329 -37.45708695343379 L27.727979231075558 -48.4027277079862 L41.01911443303206 -37.80340107638774 L32.290257207009795 -26.857760321835325 A42 42 0 0 1 41.13088863615762 -8.500000000000005 M0 -38A38 38 0 1 0 0 38 A38 38 0 1 0 0 -38" fill="#c35be1"></path></g></g>
<!-- [ldio] generated by https://loading.io/ --></svg>